<svg id="Group_1" data-name="Group 1" xmlns="http://www.w3.org/2000/svg" xmlns:xlink="http://www.w3.org/1999/xlink" width="131.934" height="90.375" viewBox="0 0 131.934 90.375">
  <defs>
    <clipPath id="clip-path">
      <rect id="Rectangle_1" data-name="Rectangle 1" width="115.454" height="73.949" fill="#fff"/>
    </clipPath>
  </defs>
  <path id="Path_21" data-name="Path 21" d="M0,0H131.934V90.375H0Z" fill="none" opacity="0.5"/>
  <g id="Group_48" data-name="Group 48" transform="translate(8.246 8.301)">
    <g id="Group_3" data-name="Group 3" transform="translate(0 0)">
      <g id="Group_2" data-name="Group 2" clip-path="url(#clip-path)">
        <path id="Path_1" data-name="Path 1" d="M115.454,9.118A12.937,12.937,0,0,0,114,2.359a4.5,4.5,0,0,0-4-2.359q-4.506,0-7.766,5.937A49.99,49.99,0,0,0,97.3,20.144a75.346,75.346,0,0,0-1.67,14.737q0,1.736.154,3.3a3.046,3.046,0,0,0-.789.356q-3.87,2.544-7.952,5.619l1.378-8.534Q89.8,27.83,89.8,26.505a1.18,1.18,0,0,0-.477-1.06,3.253,3.253,0,0,0-1.7-.318,4.2,4.2,0,0,0-2.624.69A4.167,4.167,0,0,0,83.7,28.1a64.425,64.425,0,0,1-2.624,7.952,23.378,23.378,0,0,1-2.544,4.824q-1.193,1.59-1.988,1.59-1.113,0-1.114-2.015a21.445,21.445,0,0,1,.318-3.26q.317-1.988.742-4.161.318-1.59.848-3.551a22.067,22.067,0,0,0,.583-2.863,1.36,1.36,0,0,0-.45-1.113,2.619,2.619,0,0,0-1.617-.372,5.229,5.229,0,0,0-3.021.69A4.434,4.434,0,0,0,71.35,28.1a47.487,47.487,0,0,0-1.522,5.784l-.545.1a37.657,37.657,0,0,1-5.354.8,14.551,14.551,0,0,0,1.272-5.46,4.64,4.64,0,0,0-.955-3.154,3.158,3.158,0,0,0-2.491-1.087,5,5,0,0,0-3.128,1.06,7.336,7.336,0,0,0-2.173,2.757,8.161,8.161,0,0,0-.8,3.5,7.867,7.867,0,0,0,.8,3.657q-1.59,2.81-4.771,7.527-.743-9.753-.742-15.85a2.672,2.672,0,0,0-.663-2.041,2.938,2.938,0,0,0-2.041-.61,4.418,4.418,0,0,0-2.7.689A3.015,3.015,0,0,0,44.58,28.2v1.855q0,3.963.325,8.872a28.324,28.324,0,0,1-4.035,4.088,6.139,6.139,0,0,1-3.817,1.246,2.871,2.871,0,0,1-2.226-.928,6.142,6.142,0,0,1-1.219-3.1A81.038,81.038,0,0,0,43.1,23.748q3.5-8.321,3.5-14.631a12.937,12.937,0,0,0-1.458-6.759,4.5,4.5,0,0,0-4-2.359q-4.507,0-7.766,5.937a50,50,0,0,0-4.93,14.207,75.368,75.368,0,0,0-1.67,14.737,33.735,33.735,0,0,0,.218,3.865l-.005.005a45.371,45.371,0,0,1-3.87,4.214,4.026,4.026,0,0,1-2.438,1.3,1.283,1.283,0,0,1-1.034-.477,1.924,1.924,0,0,1-.4-1.272,51.375,51.375,0,0,1,1.219-8.482,39.739,39.739,0,0,0,.8-5.3,2.547,2.547,0,0,0-.3-1.041,5.009,5.009,0,0,0-3.454-2.413,16.779,16.779,0,0,0-3.407-.256,13.8,13.8,0,0,0-1.923.164,12.209,12.209,0,0,0-4.995,2.142,16.742,16.742,0,0,0-5.221,6.1A17.233,17.233,0,0,0,0,41.454a9.531,9.531,0,0,0,1.961,6.255,6.445,6.445,0,0,0,5.248,2.385q4.187,0,6.944-4.453a7.261,7.261,0,0,0,2.2,3.26,4.95,4.95,0,0,0,3.207,1.193,7.858,7.858,0,0,0,4.718-1.855,26.167,26.167,0,0,0,4.053-3.9,15.689,15.689,0,0,0,.69,1.516,7.358,7.358,0,0,0,6.918,4.241,10.619,10.619,0,0,0,6.07-1.8,21.679,21.679,0,0,0,3.532-3A8.063,8.063,0,0,0,46.78,48.4a4.008,4.008,0,0,0,3.419,1.7,5.816,5.816,0,0,0,3.5-1.114,18.035,18.035,0,0,0,3.657-4.134Q59.21,42.2,60.748,39.7a14.868,14.868,0,0,0,4.4.637,17.1,17.1,0,0,0,3.986-.456c-.038.82-.064,1.655-.064,2.523a9.466,9.466,0,0,0,1.511,5.487,4.555,4.555,0,0,0,3.9,2.2,5.583,5.583,0,0,0,4.029-1.988,13.471,13.471,0,0,0,2.969-5.8q-.477,3.657-.848,5.619l-.159,1.22a70.141,70.141,0,0,0-8.773,7.713,23.022,23.022,0,0,0-4.241,5.964,12.6,12.6,0,0,0-1.14,5.089,5.864,5.864,0,0,0,1.7,4.373,6.005,6.005,0,0,0,4.4,1.669q5.036,0,8.3-6.282t5.275-17.254l10.178-6.839a4.1,4.1,0,0,0,.61-.5,16.01,16.01,0,0,0,1.192,2.8,7.827,7.827,0,0,0,7.368,4.214,9.548,9.548,0,0,0,6.255-2.279,4.386,4.386,0,0,0,1.59-3.552,3.5,3.5,0,0,0-.4-1.723,1.176,1.176,0,0,0-1.033-.716,1.751,1.751,0,0,0-1.166.53,8.552,8.552,0,0,1-2.094,1.378,4.927,4.927,0,0,1-2.041.53,3.511,3.511,0,0,1-2.6-.954,5.724,5.724,0,0,1-1.325-3.128,78.8,78.8,0,0,0,9.462-16.433q3.472-8.321,3.473-14.631M12.881,39.7a8.935,8.935,0,0,1-1.537,3.658A2.909,2.909,0,0,1,9.118,44.74a2.251,2.251,0,0,1-1.829-.8,3.75,3.75,0,0,1-.663-2.438A14.365,14.365,0,0,1,7.74,35.888a11.256,11.256,0,0,1,3-4.268,6.425,6.425,0,0,1,4.108-1.67ZM34.509,20.568a72.151,72.151,0,0,1,2.7-10.92q1.537-4.4,2.756-4.4,1.483,0,1.484,4.029a34.073,34.073,0,0,1-2.227,11.371,68.306,68.306,0,0,1-5.99,12.43,78.981,78.981,0,0,1,1.272-12.51M75.962,65.732q-1.644,3.074-2.968,3.075a1.22,1.22,0,0,1-1.14-.583,2.881,2.881,0,0,1-.344-1.485,9.55,9.55,0,0,1,1.829-4.956A30.15,30.15,0,0,1,79.249,55.5a44.954,44.954,0,0,1-3.287,10.231m32.123-45.085a68.305,68.305,0,0,1-5.99,12.43,79,79,0,0,1,1.272-12.51,72.185,72.185,0,0,1,2.7-10.92q1.537-4.4,2.757-4.4,1.483,0,1.484,4.029a34.077,34.077,0,0,1-2.227,11.371" transform="translate(0 0)" fill="#fff"/>
        <path id="Path_2" data-name="Path 2" d="M115.454,9.118A12.937,12.937,0,0,0,114,2.359a4.5,4.5,0,0,0-4-2.359q-4.506,0-7.766,5.937A49.99,49.99,0,0,0,97.3,20.144a75.346,75.346,0,0,0-1.67,14.737q0,1.736.154,3.3a3.046,3.046,0,0,0-.789.356q-3.87,2.544-7.952,5.619l1.378-8.534Q89.8,27.83,89.8,26.505a1.18,1.18,0,0,0-.477-1.06,3.253,3.253,0,0,0-1.7-.318,4.2,4.2,0,0,0-2.624.69A4.167,4.167,0,0,0,83.7,28.1a64.425,64.425,0,0,1-2.624,7.952,23.378,23.378,0,0,1-2.544,4.824q-1.193,1.59-1.988,1.59-1.113,0-1.114-2.015a21.445,21.445,0,0,1,.318-3.26q.317-1.988.742-4.161.318-1.59.848-3.551a22.067,22.067,0,0,0,.583-2.863,1.36,1.36,0,0,0-.45-1.113,2.619,2.619,0,0,0-1.617-.372,5.229,5.229,0,0,0-3.021.69A4.434,4.434,0,0,0,71.35,28.1a47.487,47.487,0,0,0-1.522,5.784l-.545.1a37.657,37.657,0,0,1-5.354.8,14.551,14.551,0,0,0,1.272-5.46,4.64,4.64,0,0,0-.955-3.154,3.158,3.158,0,0,0-2.491-1.087,5,5,0,0,0-3.128,1.06,7.336,7.336,0,0,0-2.173,2.757,8.161,8.161,0,0,0-.8,3.5,7.867,7.867,0,0,0,.8,3.657q-1.59,2.81-4.771,7.527-.743-9.753-.742-15.85a2.672,2.672,0,0,0-.663-2.041,2.938,2.938,0,0,0-2.041-.61,4.418,4.418,0,0,0-2.7.689A3.015,3.015,0,0,0,44.58,28.2v1.855q0,3.963.325,8.872a28.324,28.324,0,0,1-4.035,4.088,6.139,6.139,0,0,1-3.817,1.246,2.871,2.871,0,0,1-2.226-.928,6.142,6.142,0,0,1-1.219-3.1A81.038,81.038,0,0,0,43.1,23.748q3.5-8.321,3.5-14.631a12.937,12.937,0,0,0-1.458-6.759,4.5,4.5,0,0,0-4-2.359q-4.507,0-7.766,5.937a50,50,0,0,0-4.93,14.207,75.368,75.368,0,0,0-1.67,14.737,33.735,33.735,0,0,0,.218,3.865l-.005.005a45.371,45.371,0,0,1-3.87,4.214,4.026,4.026,0,0,1-2.438,1.3,1.283,1.283,0,0,1-1.034-.477,1.924,1.924,0,0,1-.4-1.272,51.375,51.375,0,0,1,1.219-8.482,39.739,39.739,0,0,0,.8-5.3,2.547,2.547,0,0,0-.3-1.041,5.009,5.009,0,0,0-3.454-2.413,16.779,16.779,0,0,0-3.407-.256,13.8,13.8,0,0,0-1.923.164,12.209,12.209,0,0,0-4.995,2.142,16.742,16.742,0,0,0-5.221,6.1A17.233,17.233,0,0,0,0,41.454a9.531,9.531,0,0,0,1.961,6.255,6.445,6.445,0,0,0,5.248,2.385q4.187,0,6.944-4.453a7.261,7.261,0,0,0,2.2,3.26,4.95,4.95,0,0,0,3.207,1.193,7.858,7.858,0,0,0,4.718-1.855,26.167,26.167,0,0,0,4.053-3.9,15.689,15.689,0,0,0,.69,1.516,7.358,7.358,0,0,0,6.918,4.241,10.619,10.619,0,0,0,6.07-1.8,21.679,21.679,0,0,0,3.532-3A8.063,8.063,0,0,0,46.78,48.4a4.008,4.008,0,0,0,3.419,1.7,5.816,5.816,0,0,0,3.5-1.114,18.035,18.035,0,0,0,3.657-4.134Q59.21,42.2,60.748,39.7a14.868,14.868,0,0,0,4.4.637,17.1,17.1,0,0,0,3.986-.456c-.038.82-.064,1.655-.064,2.523a9.466,9.466,0,0,0,1.511,5.487,4.555,4.555,0,0,0,3.9,2.2,5.583,5.583,0,0,0,4.029-1.988,13.471,13.471,0,0,0,2.969-5.8q-.477,3.657-.848,5.619l-.159,1.22a70.141,70.141,0,0,0-8.773,7.713,23.022,23.022,0,0,0-4.241,5.964,12.6,12.6,0,0,0-1.14,5.089,5.864,5.864,0,0,0,1.7,4.373,6.005,6.005,0,0,0,4.4,1.669q5.036,0,8.3-6.282t5.275-17.254l10.178-6.839a4.1,4.1,0,0,0,.61-.5,16.01,16.01,0,0,0,1.192,2.8,7.827,7.827,0,0,0,7.368,4.214,9.548,9.548,0,0,0,6.255-2.279,4.386,4.386,0,0,0,1.59-3.552,3.5,3.5,0,0,0-.4-1.723,1.176,1.176,0,0,0-1.033-.716,1.751,1.751,0,0,0-1.166.53,8.552,8.552,0,0,1-2.094,1.378,4.927,4.927,0,0,1-2.041.53,3.511,3.511,0,0,1-2.6-.954,5.724,5.724,0,0,1-1.325-3.128,78.8,78.8,0,0,0,9.462-16.433q3.472-8.321,3.473-14.631M12.881,39.7a8.935,8.935,0,0,1-1.537,3.658A2.909,2.909,0,0,1,9.118,44.74a2.251,2.251,0,0,1-1.829-.8,3.75,3.75,0,0,1-.663-2.438A14.365,14.365,0,0,1,7.74,35.888a11.256,11.256,0,0,1,3-4.268,6.425,6.425,0,0,1,4.108-1.67ZM34.509,20.568a72.151,72.151,0,0,1,2.7-10.92q1.537-4.4,2.756-4.4,1.483,0,1.484,4.029a34.073,34.073,0,0,1-2.227,11.371,68.306,68.306,0,0,1-5.99,12.43,78.981,78.981,0,0,1,1.272-12.51M75.962,65.732q-1.644,3.074-2.968,3.075a1.22,1.22,0,0,1-1.14-.583,2.881,2.881,0,0,1-.344-1.485,9.55,9.55,0,0,1,1.829-4.956A30.15,30.15,0,0,1,79.249,55.5a44.954,44.954,0,0,1-3.287,10.231m32.123-45.085a68.305,68.305,0,0,1-5.99,12.43,79,79,0,0,1,1.272-12.51,72.185,72.185,0,0,1,2.7-10.92q1.537-4.4,2.757-4.4,1.483,0,1.484,4.029a34.077,34.077,0,0,1-2.227,11.371" transform="translate(0 0)" fill="#fff"/>
      </g>
    </g>
  </g>
</svg>
