<svg id="discord-logo-color-wordmark-1" xmlns="http://www.w3.org/2000/svg" width="78.159" height="21.36" viewBox="0 0 78.159 21.36">
  <path id="Path_27" data-name="Path 27" d="M101.13,120.1a1.188,1.188,0,1,0,1.1,1.185,1.138,1.138,0,0,0-1.1-1.185Zm-3.932,0a1.188,1.188,0,1,0,1.1,1.185,1.138,1.138,0,0,0-1.1-1.185Z" transform="translate(-89.723 -111.138)" fill="#797979"/>
  <path id="Path_28" data-name="Path 28" d="M53.542,36.9H39.108A2.211,2.211,0,0,0,36.9,39.108V53.542a2.211,2.211,0,0,0,2.208,2.208H51.323l-.571-1.971,1.379,1.271,1.3,1.2,2.327,2.014V39.108A2.227,2.227,0,0,0,53.542,36.9ZM49.384,50.849s-.388-.463-.711-.862a3.415,3.415,0,0,0,1.95-1.271,6.164,6.164,0,0,1-1.239.636,7.725,7.725,0,0,1-1.562.463,7.546,7.546,0,0,1-2.79-.011,8.2,8.2,0,0,1-1.583-.463,6.314,6.314,0,0,1-.786-.366c-.032-.022-.065-.032-.1-.054s-.032-.022-.043-.022c-.194-.108-.3-.183-.3-.183a3.367,3.367,0,0,0,1.885,1.26c-.323.409-.722.883-.722.883A3.911,3.911,0,0,1,40.1,49.233a14.222,14.222,0,0,1,1.551-6.226,5.338,5.338,0,0,1,3.016-1.12l.108.129a7.068,7.068,0,0,0-2.822,1.4s.237-.129.636-.3a8.44,8.44,0,0,1,2.445-.679,1.061,1.061,0,0,1,.183-.022,9.114,9.114,0,0,1,2.176-.022,8.954,8.954,0,0,1,3.242,1.023,7.073,7.073,0,0,0-2.682-1.357l.151-.172a5.315,5.315,0,0,1,3.016,1.12,14.222,14.222,0,0,1,1.551,6.226,3.948,3.948,0,0,1-3.285,1.616ZM65.649,41.51H62.073v4.018l2.381,2.144v-3.9h1.271c.808,0,1.206.388,1.206,1.013v2.984c0,.625-.377,1.045-1.206,1.045H62.063v2.273h3.576c1.917.011,3.716-.948,3.716-3.145v-3.21C69.366,42.49,67.567,41.51,65.649,41.51Zm18.743,6.431v-3.3c0-1.185,2.133-1.454,2.779-.269l1.971-.8a3.546,3.546,0,0,0-3.361-2.2c-1.917,0-3.813,1.109-3.813,3.264v3.3c0,2.176,1.9,3.264,3.77,3.264a3.846,3.846,0,0,0,3.447-2.144l-2.111-.969c-.517,1.325-2.682,1-2.682-.151ZM77.875,45.1c-.743-.162-1.239-.431-1.271-.894.043-1.109,1.756-1.153,2.758-.086L80.945,42.9a3.929,3.929,0,0,0-3.264-1.53c-1.756,0-3.458.991-3.458,2.865a3.112,3.112,0,0,0,2.941,3.038c.786.108,1.659.42,1.637.959-.065,1.023-2.176.969-3.135-.194l-1.53,1.433A4.193,4.193,0,0,0,77.391,51.2c1.756,0,3.705-1.013,3.781-2.865C81.279,46,79.577,45.41,77.875,45.1Zm-7.217,5.978h2.413V41.51H70.658Zm40.684-9.565h-3.576v4.018l2.381,2.144v-3.9h1.271c.808,0,1.206.388,1.206,1.013v2.984c0,.625-.377,1.045-1.206,1.045h-3.662v2.273h3.587c1.917.011,3.716-.948,3.716-3.145v-3.21C115.059,42.49,113.26,41.51,111.343,41.51ZM93.8,41.381c-1.982,0-3.953,1.077-3.953,3.285V47.93c0,2.187,1.982,3.285,3.975,3.285s3.953-1.1,3.953-3.285V44.666C97.77,42.469,95.778,41.381,93.8,41.381Zm1.551,6.549c0,.689-.776,1.045-1.54,1.045s-1.551-.334-1.551-1.045V44.666c0-.7.754-1.077,1.508-1.077.786,0,1.583.334,1.583,1.077Zm11.084-3.264c-.054-2.24-1.583-3.145-3.555-3.145H99.052v9.565H101.5V48.049h.431l2.219,3.038h3.016L104.557,47.8C105.709,47.435,106.431,46.433,106.431,44.666Zm-3.512,1.293H101.5V43.772h1.422A1.094,1.094,0,1,1,102.919,45.959Z" transform="translate(-36.9 -36.9)" fill="#797979"/>
</svg>
