<svg id="Group_562" data-name="Group 562" xmlns="http://www.w3.org/2000/svg" width="29.307" height="26.999" viewBox="0 0 29.307 26.999">
  <path id="Path_50" data-name="Path 50" d="M84.169,45.2h8.915v27H84.169Zm-10.2,0h8.916v27H73.973Zm-10.2,0h8.916v27H63.778Z" transform="translate(-63.778 -45.2)" fill="#797979" fill-rule="evenodd"/>
  <path id="Path_51" data-name="Path 51" d="M89.863,72.878h.194c.639,0,1.592-.089,1.592.805,0,.82-.967.79-1.547.79h-.239v-1.6Zm1.042,3.086c1.369,0,2.694-.522,2.694-2.087a1.668,1.668,0,0,0-1.518-1.893v-.015a1.562,1.562,0,0,0,.818-1.52c0-1.431-.893-1.938-2.2-1.938H87.928v7.454h2.977Zm-1.042-5.978H90c.522,0,1.132.045,1.132.731,0,.626-.536.715-1.057.715h-.208ZM71.258,72.908a2.013,2.013,0,0,0,1.622-2.117c0-1.58-1.1-2.281-2.575-2.281H67.418v7.454h1.92V73.087h.03l1.816,2.877H73.6Zm-1.92-2.922h.193c.64,0,1.339.12,1.339.925,0,.82-.7.939-1.339.939h-.193ZM80.427,68.51H78.492v7.454h4.257v-1.64H80.427Z" transform="translate(-65.751 -57.835)" fill-rule="evenodd"/>
</svg>
