<svg xmlns="http://www.w3.org/2000/svg" width="40.36" height="45.442" viewBox="0 0 40.36 45.442">
  <g id="Group_559" data-name="Group 559" transform="translate(1.226 1.21)">
    <path id="Path_30" data-name="Path 30" d="M44.82,39.562c0-.114.387-.012.645.206a1.13,1.13,0,0,1,.135,1.568,1.787,1.787,0,0,1-1.757.5c1.466.247,1.462,2.178,2.7,1.906,1.173-.258,1.282-1.859,2.043-2.148,1.747-.664,2.737,2.466,2.418,4.283a3.976,3.976,0,0,1-1.191,2.36c-1.533,1.431-3.655,1.122-5.5.458a3.133,3.133,0,0,1-1.669-1.908c-.132,2.5-1.913,4.35-3.758,5.852-1.845-1.5-3.626-3.348-3.758-5.852a3.132,3.132,0,0,1-1.669,1.908c-1.844.664-3.967.972-5.5-.458a3.978,3.978,0,0,1-1.191-2.36c-.319-1.817.671-4.948,2.417-4.283.761.29.87,1.89,2.044,2.148,1.235.272,1.23-1.659,2.7-1.906a1.787,1.787,0,0,1-1.757-.5,1.13,1.13,0,0,1,.135-1.568c.258-.218.644-.32.757-.225-.943-1.242-.35-2.323-.692-3.549A2.274,2.274,0,0,0,30.6,34.378a5.472,5.472,0,0,0-2.683.294c-.847.233-1.052,1.125-1.451,1.8a2.8,2.8,0,0,0,.387,3.413,7.933,7.933,0,0,1-6.36-5.292,8.909,8.909,0,0,1-.059-6.1,6.278,6.278,0,0,1,1.978-2.783c2.661-2.186,8.951-2.3,8.951.817v.15a18.406,18.406,0,0,1,1.082-5.691c1.313-3.273,4.843-8.142,6.2-11.37,1.36,3.228,5.352,8.1,6.666,11.37A18.39,18.39,0,0,1,46.4,26.675v-.15c0-3.122,6.289-3,8.951-.817a6.28,6.28,0,0,1,1.978,2.783,8.909,8.909,0,0,1-.059,6.1,7.934,7.934,0,0,1-6.36,5.292,2.8,2.8,0,0,0,.387-3.413c-.4-.67-.6-1.562-1.451-1.8a5.474,5.474,0,0,0-2.683-.294A2.272,2.272,0,0,0,45.4,35.994c-.342,1.226.477,2.344-.58,3.568Z" transform="translate(-19.929 -9.614)" fill="none" stroke="#797979" stroke-linecap="round" stroke-linejoin="round" stroke-width="2.421"/>
    <path id="Path_31" data-name="Path 31" d="M80.277,76.235c.706.248.56,1.476,1.353,1.351-.088.294.338.563.451.525.15,0,.3-.859.671-.8a.909.909,0,0,1,.606.571c.032-.2.23-.28.3-.45.115.185.427.174.451.45.072-.229.415-.186.451-.45.236.06.066.436.3.427a.2.2,0,0,0,.151-.277.445.445,0,0,1,.451.45,2.638,2.638,0,0,0-.15-1.05c-.075.288.257.372.3.6a1.105,1.105,0,0,0-.414-1.426m-4.1-.075c-.693-.037-1.5-.138-1.654.75-.2-.667-.362-1.513.206-1.859a1.479,1.479,0,0,1,2.049.359c-.044-.053.113-.395.507-.48,1.546-.335,3.309,1.595,4,.33a2.081,2.081,0,0,1-3.35.5c-.193-.168-.567,0-.859.1" transform="translate(-64.555 -58.574)" fill="none" stroke="#797979" stroke-linecap="round" stroke-linejoin="round" stroke-width="1.211"/>
    <path id="Path_32" data-name="Path 32" d="M92.371,78.582c0,.2-.067.442.033.575.057.075.267.025.417.025.113-.113.473-.3,0-.45" transform="translate(-74.394 -61.483)" fill="none" stroke="#797979" stroke-width="0.605"/>
    <path id="Path_33" data-name="Path 33" d="M42.2,40.777c.327.794-.184,2.3-.957,1.8-1.782-1.142-3.125-2.8-5.063-3.74-.962-.469-2.031-.107-2.972-.4-1.321-.413-2.561-1.125-3.93-1.031-.236.016-.46.587-.254.753,1.8,1.45,4.239,1.361,6.412,1.715m-6.013-1.35c0,.351-.119.827.06.982,1.063.924,2.581.516,3.849.968m-3.307-.45c-.664.57-.221.9.188,1.136a4.055,4.055,0,0,0,3.57.064m-3.157.3c.433,1.877,2.784.242,4.059.3m-2.856.6a.722.722,0,0,0,.04,1.082c1.342.453,2.75-.564,4.019-1.232.18-.095,1.367.613,1.8,0m-5.111,1.35c-.149.4.009.822.3.828,1.373.027,2.533-.853,3.757-1.428.6-.283,1.43.158,1.954-.3m-5.337,1.763c1.028,1.41,3.132-.283,4.284-.863-.18.09-.05.05-.15,0,.469.215,1.356.279,1.5-.45m-4.359,1.8c.059.266.206.856.442.828a8.553,8.553,0,0,0,2.865-1.428m-2.555,1.35c0,.729.552.721.872.637a27.425,27.425,0,0,0,2.735-1.388m-2.3,1.252c.1.2.069.307.214.343.883.216,1.418-.587,2.091-.994m-1.8,1.05c.685,1.34,1.386.133,2.1-.3m-.8.651.2.4c.232-.182.62-.1.752-.45m-.15.9c-.2.251-.568.546-.516.725.483,1.645.837,3.456-.086,4.977a2.315,2.315,0,0,0,1.653-2.851c.1.663-.285,1.444.169,1.934.047.051.182.017.282.017.225-.225.522-.24.3-.6m.3.6c.09.5-.255,1.116.191,1.445.39.288.829-.52.41-.845m.451.6c-.285.5-.165,1.338.313,1.4.246.03.478-.73.138-1.1m.451.6a4.973,4.973,0,0,0,.018.9c.021.119.159.228.269.137.279-.229.52-.516.164-.884.215.223-.09,1.28.434,1.137.433-.118.537-.675.469-1.137m-1.353.45c-.513,1.3-.435,2.737-.9,4.052-1.161-1.132-.7-3.046,0-4.352-.475.891.009,2.294.075,3.4m1.052.732v.15a10.57,10.57,0,0,1,.266-3.011c.052-.173-.35-.407-.266-.74-.359,1.435-.956,3.25.15,4.5.212-.188.551-.339.556-.6a11.845,11.845,0,0,0-.1-3.751c.459,1.512-.767,4.284,1.2,4.5a5.548,5.548,0,0,0-.15-4.352m-.376.3a14.263,14.263,0,0,1,.15,3.151m-4.058-5.328c-.7.232-1,.807-1.444,1.262-.577.59-1.331,1.547-.961,2.489.6-.325.734-.978,1.052-1.5a2.135,2.135,0,0,0-.3,1.35,1.5,1.5,0,0,0,.9-1.35c.02.48.43.571.751.75a1.668,1.668,0,0,0-.451-1.35c.233-.222.776-.13.722-.6-.013-.111-.171-.2-.271-.3.26,0,.531.049.752-.15-.335-.13.458-.539-.15-.6m-1.8.45c-.48.426-.791,1.264-1.628,1.459A.715.715,0,0,0,38,57.108c.359.184.455-.182.588-.425-.927,1.687-3.311,0-4.059-1.35a2.9,2.9,0,0,0,.841,3.937c1.5,1.17,4.055-.085,4.42-1.986m1.5-1.05c-.4,2.651,1.562,4.966,3.157,6.9M29.422,39.727a3.47,3.47,0,0,0-2.015,2.283c-.962,2.69.768,5.92,3.368,7.021-.674-1.968,1.546-3.891,3.458-3.9h-.15M28.6,42.653l1.2.6,1.052-.6V44l.6.75L30.4,45.2l-.451,1.35-.451-1.2-1.654-.45.9-.9-.15-1.35Zm4.585-2.626c-.134.64.4.817.78.986.685.305,1.357-.029,2.076-.236m-1.654.45a1.361,1.361,0,0,0,2.1-.15m-1.2.9c.66.6,1.313.2,1.8-.3m.751,2.4c.375.73,1.234.31,1.5-.3m10.523-3.3c.085-4.655-1.833-8.673-4.56-12.674a11.649,11.649,0,0,1-1.078-2.032A5.053,5.053,0,0,1,43.3,27.8c-2.726,4-4.645,8.019-4.559,12.674m7.667.3c-.326.794.183,2.3.957,1.8,1.782-1.142,3.125-2.8,5.063-3.74.962-.469,2.031-.107,2.973-.4,1.321-.413,2.561-1.125,3.931-1.031.235.016.46.587.254.753-1.8,1.45-4.24,1.361-6.412,1.715m6.013-1.35c0,.351.119.827-.059.982-1.063.924-2.581.516-3.849.968m3.307-.45c.664.57.221.9-.188,1.136a4.055,4.055,0,0,1-3.57.064m3.157.3c-.432,1.877-2.784.242-4.059.3m2.856.6a.723.723,0,0,1-.04,1.082c-1.342.453-2.75-.564-4.019-1.232-.18-.095-1.367.613-1.8,0m5.111,1.35c.149.4-.009.822-.3.828-1.374.027-2.534-.853-3.757-1.428-.6-.283-1.43.158-1.954-.3m5.262,1.763c-1.24,1.651-3.056-.283-4.209-.863.18.09.05.05.15,0-.469.215-1.355.279-1.5-.45m4.209,1.951c-.059.266-.056.706-.292.677a8.55,8.55,0,0,1-2.865-1.428m2.555,1.35c0,.729-.552.721-.872.637a27.451,27.451,0,0,1-2.735-1.388m2.517,1.389c-.1.2-.282.17-.427.206-.883.216-1.417-.587-2.09-.994m1.8,1.05c-.685,1.34-1.386.133-2.1-.3m.864.788c-.1.2-.1.2-.263.263-.232-.182-.62-.1-.751-.45m.15.9c.2.251.568.546.516.725-.484,1.645-.837,3.456.085,4.977a2.315,2.315,0,0,1-1.653-2.851c-.1.663.285,1.444-.169,1.934-.047.051-.182.017-.282.017-.263-.112-.522-.24-.3-.6" transform="translate(-25.351 -21.765)" fill="none" stroke="#797979" stroke-linecap="round" stroke-linejoin="round" stroke-width="1.211"/>
    <path id="Path_34" data-name="Path 34" d="M81.257,105.567a10.723,10.723,0,0,0,3.05-2.522,12.063,12.063,0,0,0,1.5-3.064,8.867,8.867,0,0,0,.256-4.468,6.861,6.861,0,0,1-3.733-.808c-.415-.18-1.151-.58-1.115-1.142.036.563-.625.962-1.04,1.142a6.86,6.86,0,0,1-3.733.808,8.858,8.858,0,0,0,.256,4.468,12.046,12.046,0,0,0,1.5,3.064A10.728,10.728,0,0,0,81.257,105.567Z" transform="translate(-62.303 -72.749)" fill="none" stroke="#797979" stroke-linecap="round" stroke-linejoin="round" stroke-width="2.421"/>
    <path id="Path_35" data-name="Path 35" d="M92.1,94.967c-.09.5.255,1.116-.192,1.445-.39.288-.829-.52-.41-.845m-.451.6c.285.5.165,1.338-.313,1.4-.246.03-.478-.73-.138-1.1m-.451.6a4.95,4.95,0,0,1-.018.9c-.021.119-.158.228-.269.137-.279-.229-.52-.516-.164-.884-.215.223.09,1.28-.433,1.137-.434-.118-.536-.675-.468-1.137m1.353.45c.512,1.3.435,2.737.9,4.052,1.161-1.132.7-3.046,0-4.352.027.05.064,3.435.076,3.245m1.428-4.3c.7.232,1,.807,1.443,1.262.577.59,1.331,1.547.962,2.489-.6-.325-.734-.978-1.052-1.5a2.137,2.137,0,0,1,.3,1.35,1.5,1.5,0,0,1-.9-1.35c-.02.48-.43.571-.751.75A1.667,1.667,0,0,1,93,97.968c-.233-.222-.776-.13-.722-.6.013-.111.171-.2.271-.3-.26,0-.531.049-.751-.15.335-.13-.458-.539.15-.6m1.8.45c.48.426.791,1.264,1.628,1.459a.715.715,0,0,1,.012,1.216c-.359.184-.455-.182-.588-.425.927,1.687,3.311,0,4.059-1.35a2.9,2.9,0,0,1-.842,3.937c-1.5,1.17-4.055-.085-4.42-1.986m-1.5-1.05c.4,2.651-1.562,4.966-3.157,6.9m15.033-23.41a3.47,3.47,0,0,1,2.014,2.283c.962,2.69-.768,5.92-3.367,7.021.674-1.968-1.546-3.891-3.458-3.9h.15m5.487-2.476-1.2.6-1.052-.6v1.35l-.6.75,1.052.45.451,1.35.451-1.2,1.654-.45-.9-.9.15-1.35Zm-4.585-2.626c.133.64-.4.817-.78.986-.685.305-1.357-.03-2.076-.236m1.653.45a1.361,1.361,0,0,1-2.1-.15m1.2.9c-.659.6-1.312.2-1.8-.3m-.752,2.4c-.375.73-1.234.31-1.5-.3m-6.9-1.97c.122.17.158.461.449.332a.98.98,0,0,0,.416-.295c-.013.013-.035.031-.032.034a.447.447,0,0,0,.554.142c.115-.043.155-.173.192-.289a.907.907,0,0,0,.416.367.387.387,0,0,0,.448-.33c.185.3.77.408.864,0a.3.3,0,0,0,.369.169c.109-.039.221-.073.27-.206m-4.36.713c-.124.2-.016.361.149.353.079,0,.238.03.264-.127-.061.038-.051.1-.033.148.091.265.38.217.6.253.133.021.322-.076.3-.252,0,.05-.017.12.008.139a.673.673,0,0,0,.628.041c.007,0,0-.042,0-.067.033.087.13.067.188.113m.564.037a.953.953,0,0,0,.888-.113c.155-.1.387.158.617.04.1-.05.026-.2.149-.227,0,.213.257.161.328.068s.163-.163.123-.293" transform="translate(-70.137 -64.1)" fill="none" stroke="#797979" stroke-linecap="round" stroke-linejoin="round" stroke-width="1.211"/>
  </g>
</svg>
