<svg id="Group_561" data-name="Group 561" xmlns="http://www.w3.org/2000/svg" width="66.911" height="23.655" viewBox="0 0 66.911 23.655">
  <path id="Path_41" data-name="Path 41" d="M66.775,96.3,63.833,107.28h4.133L70.908,96.3Zm12.939,4.168h3.828a5.25,5.25,0,0,0,.059-1.322,2.939,2.939,0,0,0-.534-1.491,3.789,3.789,0,0,0-1.559-1.22,7.264,7.264,0,0,0-3.035-.508A8.966,8.966,0,0,0,76,96.275a7.409,7.409,0,0,0-2.25,1.076,7.6,7.6,0,0,0-1.833,1.863,8.474,8.474,0,0,0-1.221,2.711,4.219,4.219,0,0,0,.557,4.032q1.248,1.457,4.239,1.525a8.117,8.117,0,0,0,2.515-.288,8.646,8.646,0,0,0,2.231-.966,7.748,7.748,0,0,0,1.754-1.465,5.374,5.374,0,0,0,1.07-1.788H79.042a3.427,3.427,0,0,1-.59.89,3.011,3.011,0,0,1-.69.551,2.5,2.5,0,0,1-.722.279,3.29,3.29,0,0,1-.668.076,1.5,1.5,0,0,1-1.194-.449,2,2,0,0,1-.469-1.127,3.878,3.878,0,0,1,.147-1.474,5.353,5.353,0,0,1,.662-1.474,4.346,4.346,0,0,1,1.035-1.127,2.117,2.117,0,0,1,1.3-.449q.152,0,.436.008a1.33,1.33,0,0,1,.576.161,1.478,1.478,0,0,1,.535.525,2.5,2.5,0,0,1,.314,1.1ZM86.03,96.3,83.088,107.28h4.132L90.163,96.3Zm12.939,4.168H102.8a5.253,5.253,0,0,0,.059-1.322,2.926,2.926,0,0,0-.534-1.491,3.788,3.788,0,0,0-1.558-1.22,7.27,7.27,0,0,0-3.035-.508,8.966,8.966,0,0,0-2.474.347A7.4,7.4,0,0,0,93,97.352a7.6,7.6,0,0,0-1.833,1.863,8.481,8.481,0,0,0-1.222,2.711,4.22,4.22,0,0,0,.558,4.032q1.248,1.457,4.239,1.525a8.118,8.118,0,0,0,2.515-.288,8.641,8.641,0,0,0,2.23-.966,7.752,7.752,0,0,0,1.755-1.465,5.372,5.372,0,0,0,1.069-1.788H98.3a3.409,3.409,0,0,1-.591.89,2.992,2.992,0,0,1-.69.551,2.516,2.516,0,0,1-.723.279,3.284,3.284,0,0,1-.668.076,1.5,1.5,0,0,1-1.193-.449,1.994,1.994,0,0,1-.47-1.127,3.869,3.869,0,0,1,.147-1.474,5.364,5.364,0,0,1,.662-1.474,4.358,4.358,0,0,1,1.035-1.127,2.118,2.118,0,0,1,1.3-.449c.1,0,.247,0,.436.008a1.33,1.33,0,0,1,.576.161,1.478,1.478,0,0,1,.535.525,2.487,2.487,0,0,1,.315,1.1Zm6.317-4.168-2.942,10.979h4.133L109.418,96.3Z" transform="translate(-42.508 -83.989)" fill="#797979" fill-rule="evenodd"/>
  <path id="Path_42" data-name="Path 42" d="M19.647,67.439c.9-1.11,1.123-2.429.488-2.937s-1.889-.016-2.793,1.094-1.123,2.429-.488,2.937S18.743,68.549,19.647,67.439Zm2.017,12.22c4.738-5.931,5.811-12.978,2.388-15.688s-10.078-.084-14.817,5.846S3.425,82.8,6.847,85.5a5.1,5.1,0,0,0,2.876,1.053A3.4,3.4,0,0,0,11.44,84.72c.213-.578,2.214-6.049,2.461-8.72.182-1.975-.611-2.064-1.064-1.883a7.181,7.181,0,0,1-1.823.638c-.547.03-.608-.3-.3-.7S15.3,69.6,16.879,69.8a1.565,1.565,0,0,1,1.154,2.188c-.273.79-1.185,4.192-1.549,5.955a23.7,23.7,0,0,0-.668,5.165,1.435,1.435,0,0,0,.749,1.248A21.992,21.992,0,0,0,21.664,79.659Z" transform="translate(-4.844 -62.902)" fill="#797979" fill-rule="evenodd"/>
  <path id="Path_43" data-name="Path 43" d="M24.32,67.44c.9-1.11,1.123-2.429.488-2.937s-1.889-.016-2.793,1.094-1.123,2.429-.488,2.937S23.416,68.55,24.32,67.44Zm2.9,9.513c3.938-4.972,4.528-10.881,1.314-13.153s-9.046-.071-12.984,4.9-4.528,10.88-1.314,13.153a5.038,5.038,0,0,0,2.578.878A37.077,37.077,0,0,0,18.574,76c.182-1.975-.611-2.064-1.064-1.883a7.182,7.182,0,0,1-1.823.638c-.547.03-.608-.3-.3-.7s4.589-4.451,6.168-4.254a1.565,1.565,0,0,1,1.154,2.188c-.273.79-1.185,4.193-1.549,5.955a37.885,37.885,0,0,0-.663,4.16A16.325,16.325,0,0,0,27.219,76.953Z" transform="translate(-9.517 -62.903)" fill="#797979" fill-rule="evenodd"/>
</svg>
