<svg xmlns="http://www.w3.org/2000/svg" width="66.223" height="18.178" viewBox="0 0 66.223 18.178">
  <path id="Path_24" data-name="Path 24" d="M6.742,91.713V80.142a6.393,6.393,0,0,1,6.372-6.568c4.066,0,6.45,2.971,6.45,6.685a6.123,6.123,0,0,1-6.333,6.255,4.311,4.311,0,0,1-2.189-.469V81.666a2.727,2.727,0,0,0,2.111.977,2.494,2.494,0,0,0,2.5-2.5,2.362,2.362,0,0,0-2.5-2.58,2.466,2.466,0,0,0-2.463,2.776V91.713H6.742Zm26.935,0V80.142a6.393,6.393,0,0,1,6.372-6.568c4.066,0,6.45,2.971,6.45,6.685a6.123,6.123,0,0,1-6.333,6.255,4.309,4.309,0,0,1-2.189-.469V81.666a2.727,2.727,0,0,0,2.111.977,2.494,2.494,0,0,0,2.5-2.5,2.362,2.362,0,0,0-2.5-2.58,2.467,2.467,0,0,0-2.463,2.776V91.713H33.677ZM60.142,80.024a6.562,6.562,0,0,0,6.372,6.529,6.629,6.629,0,0,0,6.45-6.529,6.412,6.412,0,1,0-12.823,0Zm3.831,0A2.568,2.568,0,0,1,66.4,77.483a2.541,2.541,0,1,1,0,5.081A2.54,2.54,0,0,1,63.973,80.024Zm-8.17.509a2.4,2.4,0,0,1-2.385,2.032,2.535,2.535,0,0,1-2.54-2.541,2.561,2.561,0,0,1,2.54-2.541A2.466,2.466,0,0,1,55.8,79.478l3.87-.743a6.568,6.568,0,1,0-.04,2.7l-3.83-.9Zm-22.713.078a8.514,8.514,0,0,0-.234-2.346A6.443,6.443,0,1,0,26.6,86.514a6.358,6.358,0,0,0,6.137-4.183L29.025,81a2.636,2.636,0,0,1-2.424,1.6,2.3,2.3,0,0,1-2.463-1.994H33.09ZM26.6,77.366a2.882,2.882,0,0,1,2.5,1.642c.039.039.039.078.078.157H24.06A2.863,2.863,0,0,1,26.6,77.366Z" transform="translate(-6.742 -73.535)" fill="#797979" fill-rule="evenodd"/>
</svg>
