<svg xmlns="http://www.w3.org/2000/svg" width="75.978" height="18.912" viewBox="0 0 75.978 18.912">
  <path id="Path_47" data-name="Path 47" d="M2.835,88.18v-.321h.472a1.289,1.289,0,0,0,1.132-.477,2.565,2.565,0,0,0,.2-1.281V78.52a2.286,2.286,0,0,0-.259-1.377,1.415,1.415,0,0,0-1.077-.381H2.835V76.44H7.95a11.878,11.878,0,0,1,4.287.6,4.982,4.982,0,0,1,2.363,1.99,5.84,5.84,0,0,1,.895,3.22,5.654,5.654,0,0,1-1.595,4.1q-1.787,1.836-5.45,1.836Zm3.587-.847a10.037,10.037,0,0,0,1.974.242,4.838,4.838,0,0,0,3.566-1.412,5.88,5.88,0,0,0,0-7.661,4.955,4.955,0,0,0-3.64-1.4,8.451,8.451,0,0,0-1.9.251v9.984Zm11.818-4.1a3.886,3.886,0,0,0,.918,2.771,2.87,2.87,0,0,0,2.175,1,2.478,2.478,0,0,0,1.452-.428,3.151,3.151,0,0,0,1.032-1.467l.288.173a4.035,4.035,0,0,1-1.132,2.161,3.116,3.116,0,0,1-2.344.973,3.53,3.53,0,0,1-2.617-1.113,4.1,4.1,0,0,1-1.089-2.992,4.33,4.33,0,0,1,1.117-3.172,3.754,3.754,0,0,1,2.8-1.14,3.249,3.249,0,0,1,2.344.878,3.107,3.107,0,0,1,.919,2.352Zm0-.5H22.17a3.167,3.167,0,0,0-.195-1.073,1.75,1.75,0,0,0-.69-.762,1.836,1.836,0,0,0-.958-.277,1.978,1.978,0,0,0-1.377.558A2.349,2.349,0,0,0,18.24,82.733Zm14.207,2.436A4.222,4.222,0,0,1,31.1,87.58a3.355,3.355,0,0,1-4.739-.293,4.274,4.274,0,0,1-1.075-3.066,4.069,4.069,0,0,1,1.191-3.038,3.94,3.94,0,0,1,2.859-1.168,3.278,3.278,0,0,1,2.057.619,1.689,1.689,0,0,1,.807,1.285.679.679,0,0,1-.228.532.918.918,0,0,1-.634.2,1.011,1.011,0,0,1-.823-.328,1.3,1.3,0,0,1-.211-.694,1.106,1.106,0,0,0-.375-.778,1.4,1.4,0,0,0-.9-.259,1.892,1.892,0,0,0-1.492.641,3.261,3.261,0,0,0-.75,2.243,4.318,4.318,0,0,0,.748,2.507,2.321,2.321,0,0,0,2.014,1.086,2.54,2.54,0,0,0,1.633-.579,3.912,3.912,0,0,0,.992-1.447l.268.121Zm5.367-5.153a3.872,3.872,0,0,1,3.1,1.367,4.026,4.026,0,0,1,.992,2.684,4.808,4.808,0,0,1-.546,2.157,3.835,3.835,0,0,1-1.507,1.644,4.191,4.191,0,0,1-2.138.554,3.685,3.685,0,0,1-3.049-1.43,4.235,4.235,0,0,1-.954-2.7,4.54,4.54,0,0,1,.579-2.17,3.8,3.8,0,0,1,1.526-1.594A4.111,4.111,0,0,1,37.814,80.015Zm-.287.563a2.024,2.024,0,0,0-.984.272,1.937,1.937,0,0,0-.8.958,4.327,4.327,0,0,0-.306,1.757,5.8,5.8,0,0,0,.735,2.988,2.2,2.2,0,0,0,1.941,1.254,1.849,1.849,0,0,0,1.483-.693,3.734,3.734,0,0,0,.584-2.38,5.178,5.178,0,0,0-.973-3.325,2.047,2.047,0,0,0-1.677-.831Zm7.9,4.709a2.745,2.745,0,0,1-1.2-.991,2.518,2.518,0,0,1-.418-1.407,2.625,2.625,0,0,1,.949-2.026,3.519,3.519,0,0,1,2.434-.849,3.888,3.888,0,0,1,2.1.554h1.8a2.437,2.437,0,0,1,.465.022.153.153,0,0,1,.093.073.512.512,0,0,1,.054.277.735.735,0,0,1-.047.313.18.18,0,0,1-.1.069,2.11,2.11,0,0,1-.467.027h-1.1a2.4,2.4,0,0,1,.519,1.591,2.429,2.429,0,0,1-.908,1.9,3.583,3.583,0,0,1-2.437.787,5.078,5.078,0,0,1-1.289-.173,2.3,2.3,0,0,0-.55.577.858.858,0,0,0-.145.419.393.393,0,0,0,.15.285,1.092,1.092,0,0,0,.579.2c.168.024.586.044,1.257.062q1.854.044,2.4.122a2.307,2.307,0,0,1,1.336.6,1.6,1.6,0,0,1,.5,1.194,2.467,2.467,0,0,1-.961,1.836,5.321,5.321,0,0,1-3.685,1.263,5.465,5.465,0,0,1-2.954-.753q-.68-.432-.679-.9a.922.922,0,0,1,.1-.414,4.779,4.779,0,0,1,.648-.894c.045-.051.361-.363.947-.933a2.921,2.921,0,0,1-.681-.481.684.684,0,0,1-.2-.481,1.363,1.363,0,0,1,.263-.71,5.833,5.833,0,0,1,1.218-1.152Zm1.611-4.855a1.493,1.493,0,0,0-1.148.51,2.28,2.28,0,0,0-.463,1.567,3.213,3.213,0,0,0,.629,2.122,1.536,1.536,0,0,0,1.225.571,1.5,1.5,0,0,0,1.157-.494,2.237,2.237,0,0,0,.454-1.549A3.306,3.306,0,0,0,48.249,81,1.508,1.508,0,0,0,47.034,80.432Zm-1.7,7.748a4.261,4.261,0,0,0-.657.822,1.4,1.4,0,0,0-.223.7.875.875,0,0,0,.522.727,5.126,5.126,0,0,0,2.6.536,4.144,4.144,0,0,0,2.387-.55,1.5,1.5,0,0,0,.769-1.172.661.661,0,0,0-.456-.641,6.184,6.184,0,0,0-1.844-.224A30.577,30.577,0,0,1,45.331,88.18Zm9.274-12.312a.936.936,0,0,1,.664.255.817.817,0,0,1,.273.621.827.827,0,0,1-.273.623.93.93,0,0,1-.664.26.943.943,0,0,1-.667-.26.824.824,0,0,1-.278-.623.815.815,0,0,1,.273-.621.947.947,0,0,1,.672-.255Zm.771,4.147v6.372a2.709,2.709,0,0,0,.116.991.765.765,0,0,0,.342.368,1.929,1.929,0,0,0,.831.122v.313H52.541v-.313a2.042,2.042,0,0,0,.835-.113.785.785,0,0,0,.337-.372,2.642,2.642,0,0,0,.126-1V83.331a10.219,10.219,0,0,0-.083-1.671.664.664,0,0,0-.2-.385.614.614,0,0,0-.38-.109,1.976,1.976,0,0,0-.632.131l-.13-.313,2.558-.969h.408Zm1.734,1.021,2.615-.986h.351V81.9A4.627,4.627,0,0,1,61.4,80.434a2.566,2.566,0,0,1,1.395-.419,2.765,2.765,0,0,1,2.131.935,4.231,4.231,0,0,1,1.049,2.979,4.76,4.76,0,0,1-1.26,3.393,3.736,3.736,0,0,1-3.8.918,2.772,2.772,0,0,1-.835-.519v2.416a2.977,2.977,0,0,0,.107,1.033.759.759,0,0,0,.37.35,2.419,2.419,0,0,0,.958.131v.321H57.065v-.321H57.3a1.786,1.786,0,0,0,.871-.182.639.639,0,0,0,.273-.309,3.481,3.481,0,0,0,.1-1.077v-7.5a3.779,3.779,0,0,0-.074-.977.583.583,0,0,0-.237-.313.816.816,0,0,0-.441-.1,1.813,1.813,0,0,0-.565.122l-.111-.277Zm2.966,1.376v2.962a6.027,6.027,0,0,0,.083,1.265,1.626,1.626,0,0,0,.636.882,2.054,2.054,0,0,0,1.274.381,1.875,1.875,0,0,0,1.5-.677,3.719,3.719,0,0,0,.752-2.484,4.122,4.122,0,0,0-.854-2.8,1.814,1.814,0,0,0-1.409-.676,2.014,2.014,0,0,0-.88.209A5.026,5.026,0,0,0,60.076,82.413Zm12.625-2.4v2.7H72.4a3.432,3.432,0,0,0-.9-1.733,2.121,2.121,0,0,0-1.4-.458,1.613,1.613,0,0,0-1.047.321.91.91,0,0,0-.4.709,1.236,1.236,0,0,0,.3.831,3.317,3.317,0,0,0,1.167.754l1.352.614q1.883.858,1.882,2.26a2.081,2.081,0,0,1-.876,1.744,3.171,3.171,0,0,1-1.959.663,7.17,7.17,0,0,1-1.78-.26,1.915,1.915,0,0,0-.5-.086.371.371,0,0,0-.334.224h-.306V85.47h.306a3.159,3.159,0,0,0,.991,1.828,2.48,2.48,0,0,0,1.639.614,1.532,1.532,0,0,0,1.041-.35,1.086,1.086,0,0,0,.4-.844,1.309,1.309,0,0,0-.448-1.007,8.019,8.019,0,0,0-1.794-1.028,5.34,5.34,0,0,1-1.761-1.126,1.869,1.869,0,0,1-.417-1.248,2.128,2.128,0,0,1,.719-1.636,2.643,2.643,0,0,1,1.858-.658,4.651,4.651,0,0,1,1.215.2,3.028,3.028,0,0,0,.629.129.393.393,0,0,0,.232-.06.849.849,0,0,0,.195-.268Zm6.112-4.684a2.328,2.328,0,1,0-2.326,2.238A2.287,2.287,0,0,0,78.813,75.331Zm-.27,0a2.057,2.057,0,1,1-2.063-1.978A2.017,2.017,0,0,1,78.543,75.331ZM75.617,76.5h.331V75.441h.843c.533,0,.384.454.438.746l.054.311h.391c-.142-.214-.094-.266-.121-.59-.04-.428-.047-.467-.31-.629a.611.611,0,0,0,.337-.616c-.034-.558-.418-.629-.816-.629H75.617V76.5h0Zm1.153-2.185c.2,0,.519.052.472.474-.034.318-.25.376-.472.376h-.822v-.85Z" transform="translate(-2.835 -73.094)" fill="#797979" fill-rule="evenodd"/>
</svg>
