<svg xmlns="http://www.w3.org/2000/svg" width="67.635" height="18.241" viewBox="0 0 67.635 18.241">
  <path id="Path_57" data-name="Path 57" d="M6.942,71.8V88.756h1.8v.414h-5.9v-.414h1.8V71.8h-1.8V71.39h5.9V71.8Zm6.3,0H12.083V71.39h4.478V71.8H15.4a2.274,2.274,0,0,0-1.342.646L9.03,78l6.434,10.186a1.409,1.409,0,0,0,1.15.567h1v.414H11.075v-.414h1.562c.43,0,.191-.332.191-.332L7.11,79.432s6.2-6.842,6.35-7.008S13.848,71.8,13.246,71.8Zm11.321,3.834,2.3,7.571H22.313ZM18.29,88.756v.414h5.074v-.414h-2.7l1.511-5.134h4.82l1.558,5.134H26.2v.414h6.776v-.414H31.017L25.766,71.149h-.288L20.227,88.756H18.29Zm19.74-9.1V71.8h2.383c1.829,0,2.743,1.164,2.743,3.465v.952c0,2.3-.914,3.439-2.743,3.439Zm7.886,8.884a4.613,4.613,0,0,1-.576-2.6V84.933a5.7,5.7,0,0,0-.576-2.841,5.016,5.016,0,0,0-3.221-2.121,5.176,5.176,0,0,0,2.717-1.315,3.845,3.845,0,0,0,1.176-2.909,3.928,3.928,0,0,0-1.584-3.333,5.63,5.63,0,0,0-3.439-1.022H33.778V71.8h1.939V88.756H33.778v.414h6.2v-.414H38.029V80.073h2c1.324,0,2.142.8,2.455,2.416.144,1.514.289,3,.433,4.488.289,1.62,1.057,2.4,2.281,2.4a5.992,5.992,0,0,0,1.488-.29c.744-.232,1.128-.495,1.128-.734l-.072-.08s-.144.08-.432.213a1.949,1.949,0,0,1-.792.213s-.192-.053-.6-.159ZM52.853,71.8V88.756h1.939v.414H48.6v-.414H50.54V71.8H48.6v-.413h6.191V71.8ZM57.6,88.756a.431.431,0,0,0,.459-.433V71.8H56.122V71.39h4.594l7.17,12.934s.269.432.269-.1V72.137s.018-.333-.381-.333H66.216V71.39h4.254V71.8H68.914a.34.34,0,0,0-.385.333v16.89c0,.344-.646.594-.99.031-.591-.967-9.1-16.486-9.1-16.486V88.314s.018.441.362.441h1.577v.414H56.121v-.414Z" transform="translate(-2.834 -71.149)" fill="#797979" fill-rule="evenodd"/>
</svg>
