<svg id="Rivian_logo" xmlns="http://www.w3.org/2000/svg" width="62.52" height="10.494" viewBox="0 0 62.52 10.494">
  <path id="logo_1_" d="M183.72,133.3h-1.769v7.792l-5.127-7.792h-2.1v10.494h1.769V136l5.127,7.792h2.1Zm-17.226,0h-1.948l-4.2,10.494h1.948l.538-1.351a1.094,1.094,0,0,1,1.077-.817h3.179l-.385-.974a1.184,1.184,0,0,0-1.179-.911h-1.615l1.615-4.147,3.23,8.2H170.7Zm-10.177,0h-1.846v10.494h1.846Zm-5.87,0H148.5l-3.1,8.137-3.1-8.137h-1.948l4.076,10.494h1.948Zm-14.15,0h-1.82v10.494h1.846V133.3Zm-6.588,3.487c0-1.759-.974-3.487-3.076-3.487H121.2v10.494h1.846v-8.609h3.332a1.409,1.409,0,0,1,1.512,1.6c0,1.005-.487,1.634-1.512,1.634h-1.41c-.641,0-1,.44-1,1.225v.66h1.025a1.235,1.235,0,0,1,1.128.66l1.82,2.828H130.2l-2.512-3.927a2.914,2.914,0,0,0,2.025-3.079Z" transform="translate(-121.2 -133.3)" fill="#797979"/>
</svg>
