<svg id="sage-logo" xmlns="http://www.w3.org/2000/svg" width="43.809" height="16.677" viewBox="0 0 43.809 16.677">
  <path id="Path_22" data-name="Path 22" d="M38.688.5c-3.385,0-5.6,2.319-5.6,6.151,0,4.76,3.384,6.12,5.811,6.12a6.628,6.628,0,0,0,4.807-2.055L42.149,9.155a4.506,4.506,0,0,1-3.214,1.19c-1.885,0-3.153-1.1-3.153-2.612h8.408C44.174,7.718,45.643.5,38.688.5M35.782,5.662a2.948,2.948,0,0,1,3.2-3.014,2.929,2.929,0,0,1,3.153,3.014Zm-28.049-.2c-1.082-.139-4.188-.016-4.188-1.437,0-.835,1.313-1.3,2.5-1.3A6.4,6.4,0,0,1,9.6,3.746l1.623-1.607A8.313,8.313,0,0,0,6.049.5C3.39.5.995,1.89.995,4.116c0,3.416,4.126,3.416,5.841,3.586,1.051.107,1.994.169,1.994,1.189,0,.958-1.453,1.484-2.581,1.484A5.454,5.454,0,0,1,2.231,8.8L.5,10.546a7.976,7.976,0,0,0,5.61,2.225c3.091,0,5.332-1.36,5.332-4.1,0-1.808-1.221-2.89-3.709-3.214M16.6.5a7.558,7.558,0,0,0-4.745,1.638l1.623,1.623a5.117,5.117,0,0,1,3.137-1.02c2.055,0,2.673.819,2.673,1.746V5.646H15.63c-1.36,0-4.019.34-4.019,3.323,0,2.194,1.252,3.8,4.251,3.8a4.223,4.223,0,0,0,3.43-1.422v1.19h2.658V4.673C21.951,1.922,20.266.5,16.6.5m2.7,7.742c0,2.272-1.623,2.148-3.06,2.148s-2.4-.387-2.4-1.407c0-.943.757-1.268,2.333-1.268h3.122ZM30.157.748V2.061A4.32,4.32,0,0,0,26.7.5a4.059,4.059,0,0,0-4.25,2.921,13.633,13.633,0,0,0-.216,3.2,9.094,9.094,0,0,0,.525,3.879A4.539,4.539,0,0,0,26.7,12.771a4.482,4.482,0,0,0,3.462-1.515V12a2.221,2.221,0,0,1-.85,1.885,3.369,3.369,0,0,1-2.225.727,4.044,4.044,0,0,1-2.194-.819l-1.793,1.793a6.532,6.532,0,0,0,4.034,1.592A6.092,6.092,0,0,0,31.1,15.83a5.281,5.281,0,0,0,1.746-4.1V.748Zm0,5.873a11.627,11.627,0,0,1-.093,1.947,2.546,2.546,0,0,1-2.611,1.762c-.4,0-2.411-.232-2.643-1.978a12.976,12.976,0,0,1-.077-1.731,11.031,11.031,0,0,1,.123-2.133,2.56,2.56,0,0,1,2.6-1.7A2.45,2.45,0,0,1,30.064,4.6a14.757,14.757,0,0,1,.093,2.025" transform="translate(-0.5 -0.5)" fill="#797979"/>
</svg>
